DataType=double
version=3
OpenSimVersion=4.3-2021-07-13-51ee73d
endheader
time	ground_force_r_vx	ground_force_r_vy	ground_force_r_vz	ground_force_r_px	ground_force_r_py	ground_force_r_pz	ground_force_l_vx	ground_force_l_vy	ground_force_l_vz	ground_force_l_px	ground_force_l_py	ground_force_l_pz	ground_torque_r_x	ground_torque_r_y	ground_torque_r_z	ground_torque_l_x	ground_torque_l_y	ground_torque_l_z
2.150120282902264	0	0	0	0	0	0	0.3373970142547322	0.2515194129489101	0	0	0	0	0	0	0	0	0	0.01930878448096982
2.153781485731287	0	0	0	0	0	0	0.9607439929569217	0.7108171531506048	0	0	0	0	0	0	0	0	0	0.06288019543942301
2.157442688560309	0	0	0	0	0	0	3.229750488640533	2.414283866098998	0	0	0	0	0	0	0	0	0	0.301932165114656
2.161103891389332	0	0	0	0	0	0	14.52821521984781	11.59557929575456	0	0	0	0	0	0	0	0	0	2.050435014695376
2.164765094218355	0	0	0	0	0	0	45.7421818305179	45.45803753928159	0	0	0	0	0	0	0	0	0	8.69726228673734
2.168426297047377	0	0	0	0	0	0	9.009830296175039	118.0971275810599	0	0	0	0	0	0	0	0	0	19.73232899728457
2.1720874998764	0	0	0	0	0	0	-39.63458168623625	334.5763068691778	0	0	0	0	0	0	0	0	0	57.75969491579234
2.175748702705422	0	0	0	0	0	0	-38.74046728673666	491.9361019690764	0	0	0	0	0	0	0	0	0	85.38492555028432
2.179409905534445	0	0	0	0	0	0	-6.403794337896862	635.719745240558	0	0	0	0	0	0	0	0	0	109.2532981877872
2.183071108363468	0	0	0	0	0	0	-38.47743976638333	735.4081900805568	0	0	0	0	0	0	0	0	0	120.9904813840896
2.186732311192491	0	0	0	0	0	0	-36.9293601531509	760.7525980056453	0	0	0	0	0	0	0	0	0	120.2269282983279
2.190393514021513	0	0	0	0	0	0	-38.23835338645691	817.9917246458094	0	0	0	0	0	0	0	0	0	127.0177013206728
2.194054716850536	0	0	0	0	0	0	-60.6528300871273	851.7264635413978	0	0	0	0	0	0	0	0	0	130.4705948842065
2.197715919679558	0	0	0	0	0	0	-69.53751233412726	876.2257730011124	0	0	0	0	0	0	0	0	0	133.8111284954031
2.201377122508581	0	0	0	0	0	0	-91.16939110026372	887.4602780057689	0	0	0	0	0	0	0	0	0	134.5573803863514
2.205038325337604	0	0	0	0	0	0	-102.7219234641495	917.9694262536243	0	0	0	0	0	0	0	0	0	138.9534185787777
2.208699528166626	0	0	0	0	0	0	-126.4750928848535	948.2624615378206	0	0	0	0	0	0	0	0	0	142.4543382912062
2.212360730995649	0	0	0	0	0	0	-134.7255455077819	988.5390801568022	0	0	0	0	0	0	0	0	0	147.6226589426716
2.216021933824671	0	0	0	0	0	0	-148.8501354817449	1031.344879963475	0	0	0	0	0	0	0	0	0	152.2003709641729
2.219683136653694	0	0	0	0	0	0	-148.0775952239502	1084.686744328456	0	0	0	0	0	0	0	0	0	158.5938182395371
2.223344339482717	0	0	0	0	0	0	-151.4965463472398	1137.696403748831	0	0	0	0	0	0	0	0	0	164.565388273683
2.22700554231174	0	0	0	0	0	0	-147.5365619440306	1190.522927609827	0	0	0	0	0	0	0	0	0	170.1055333690447
2.230666745140762	0	0	0	0	0	0	-142.0002054354953	1248.086674702067	0	0	0	0	0	0	0	0	0	175.2370668794382
2.234327947969785	0	0	0	0	0	0	-132.257392928437	1298.6153519888	0	0	0	0	0	0	0	0	0	178.9451708971924
2.237989150798807	0	0	0	0	0	0	-126.4545921754416	1337.464025105865	0	0	0	0	0	0	0	0	0	181.5253434152557
2.24165035362783	0	0	0	0	0	0	-119.557274868059	1368.614397266771	0	0	0	0	0	0	0	0	0	183.3740519153139
2.245311556456853	0	0	0	0	0	0	-111.8964171694546	1396.625225641693	0	0	0	0	0	0	0	0	0	184.3877621441497
2.248972759285875	0	0	0	0	0	0	-104.5538114829705	1419.092120798105	0	0	0	0	0	0	0	0	0	184.5077250744076
2.252633962114898	0	0	0	0	0	0	-99.3844646466369	1433.554370006088	0	0	0	0	0	0	0	0	0	183.6665840468117
2.25629516494392	0	0	0	0	0	0	-92.50460106659247	1442.709572193098	0	0	0	0	0	0	0	0	0	182.3822398524148
2.259956367772943	0	0	0	0	0	0	-86.79246462180458	1445.705654561521	0	0	0	0	0	0	0	0	0	180.2536123362134
2.263617570601966	0	0	0	0	0	0	-78.50496621149279	1446.096295468841	0	0	0	0	0	0	0	0	0	178.4136295637221
2.267278773430989	0	0	0	0	0	0	-73.59376312959559	1437.607005153926	0	0	0	0	0	0	0	0	0	175.8315943920096
2.270939976260011	0	0	0	0	0	0	-67.36071144702173	1429.200069044608	0	0	0	0	0	0	0	0	0	173.5407105500446
2.274601179089034	0	0	0	0	0	0	-60.73777521484514	1420.041231070863	0	0	0	0	0	0	0	0	0	170.8652489380376
2.278262381918057	0	0	0	0	0	0	-53.07226119065351	1407.174587090605	0	0	0	0	0	0	0	0	0	168.0425190906415
2.281923584747079	0	0	0	0	0	0	-48.7815551725355	1386.761162389413	0	0	0	0	0	0	0	0	0	164.7001539730693
2.285584787576102	0	0	0	0	0	0	-37.76558954509424	1372.872541983795	0	0	0	0	0	0	0	0	0	163.7655369609284
2.289245990405124	0	0	0	0	0	0	-31.09429820581102	1353.122453391229	0	0	0	0	0	0	0	0	0	162.7985476861025
2.292907193234147	0	0	0	0	0	0	-21.35737110935926	1332.617772352439	0	0	0	0	0	0	0	0	0	162.7054991480159
2.29656839606317	0	0	0	0	0	0	-13.85846149016177	1309.204499587537	0	0	0	0	0	0	0	0	0	162.754520879044
2.300229598892192	0	0	0	0	0	0	-1.559955061938245	1289.443234855934	0	0	0	0	0	0	0	0	0	164.7959708583053
2.303890801721215	0	0	0	0	0	0	6.41419083647497	1264.664361073548	0	0	0	0	0	0	0	0	0	167.211444929435
2.307552004550237	0	0	0	0	0	0	12.9529888876541	1233.893923136328	0	0	0	0	0	0	0	0	0	169.067441915424
2.31121320737926	0	0	0	0	0	0	20.92312024829109	1204.31900689101	0	0	0	0	0	0	0	0	0	171.2344519300624
2.314874410208283	0	0	0	0	0	0	27.86698841591692	1172.585057215157	0	0	0	0	0	0	0	0	0	173.7348244302872
2.318535613037305	0	0	0	0	0	0	32.79021971258054	1136.238401365246	0	0	0	0	0	0	0	0	0	176.4210130045536
2.322196815866328	0	0	0	0	0	0	37.2759986216091	1099.767785665769	0	0	0	0	0	0	0	0	0	178.99451141413
